solid OpenSCAD_Model
  facet normal 0 0 1
    outer loop
      vertex 92 0 25
      vertex -46 79.6743 25
      vertex 0 0 25
    endloop
  endfacet
  facet normal 0 0 -1
    outer loop
      vertex 0 0 0
      vertex -46 79.6743 0
      vertex 92 0 0
    endloop
  endfacet
  facet normal 0 -1 0
    outer loop
      vertex 0 0 0
      vertex 92 0 25
      vertex 0 0 25
    endloop
  endfacet
  facet normal 0 -1 -0
    outer loop
      vertex 92 0 25
      vertex 0 0 0
      vertex 92 0 0
    endloop
  endfacet
  facet normal -0.866025 -0.5 0
    outer loop
      vertex 0 0 0
      vertex -46 79.6743 25
      vertex -46 79.6743 0
    endloop
  endfacet
  facet normal -0.866025 -0.5 0
    outer loop
      vertex -46 79.6743 25
      vertex 0 0 0
      vertex 0 0 25
    endloop
  endfacet
  facet normal 0.5 0.866025 -0
    outer loop
      vertex 92 0 0
      vertex -46 79.6743 25
      vertex 92 0 25
    endloop
  endfacet
  facet normal 0.5 0.866025 0
    outer loop
      vertex -46 79.6743 25
      vertex 92 0 0
      vertex -46 79.6743 0
    endloop
  endfacet
endsolid OpenSCAD_Model
